<svg width="24" height="24" viewBox="0 0 24 24" fill="none" xmlns="http://www.w3.org/2000/svg">
<rect width="24" height="24" rx="12" fill="white"/>
<path d="M5 19L6.00528 15.2685C5.19455 13.8148 4.93697 12.1186 5.27981 10.491C5.62265 8.86334 6.54292 7.41353 7.87174 6.40757C9.20056 5.40161 10.8488 4.90698 12.514 5.01445C14.1792 5.12192 15.7497 5.82427 16.9372 6.99263C18.1248 8.16099 18.8498 9.71698 18.9791 11.3751C19.1085 13.0332 18.6336 14.6822 17.6415 16.0194C16.6494 17.3567 15.2068 18.2926 13.5783 18.6553C11.9498 19.018 10.2446 18.7833 8.77573 17.9941L5 19ZM8.95779 16.5978L9.1913 16.7358C10.2552 17.3643 11.4979 17.6244 12.7256 17.4756C13.9534 17.3267 15.0972 16.7772 15.9789 15.9128C16.8606 15.0484 17.4306 13.9176 17.6002 12.6966C17.7697 11.4756 17.5292 10.233 16.9161 9.16239C16.3031 8.09183 15.3519 7.25345 14.2109 6.77791C13.0698 6.30236 11.803 6.21636 10.6078 6.53331C9.41261 6.85026 8.35617 7.55235 7.60314 8.53018C6.8501 9.508 6.44276 10.7066 6.44459 11.9393C6.44359 12.9613 6.72721 13.9636 7.26386 14.8346L7.4103 15.0752L6.84829 17.1579L8.95779 16.5978Z" fill="#128C7E"/>
<path fill-rule="evenodd" clip-rule="evenodd" d="M14.2911 12.9735C14.1687 12.867 14.0254 12.7921 13.8721 12.7545C13.7188 12.7168 13.5595 12.7173 13.4065 12.756C13.1765 12.859 13.0278 13.2481 12.8792 13.4427C12.8479 13.4893 12.8018 13.522 12.7497 13.5347C12.6976 13.5473 12.643 13.539 12.5961 13.5113C11.7541 13.1558 11.0482 12.5038 10.5933 11.6612C10.5545 11.6086 10.5361 11.5418 10.5421 11.475C10.548 11.4081 10.5778 11.3463 10.6251 11.3026C10.7909 11.1257 10.9126 10.9066 10.979 10.6655C10.9937 10.3996 10.9372 10.1348 10.8162 9.90257C10.7227 9.577 10.5446 9.28711 10.3031 9.06714C10.1786 9.00674 10.0405 8.98649 9.90548 9.00883C9.77048 9.03117 9.64437 9.09514 9.54234 9.19302C9.36523 9.35776 9.22464 9.56323 9.13095 9.7943C9.03725 10.0254 8.99282 10.2762 9.00094 10.5282C9.00149 10.6697 9.01813 10.8107 9.05048 10.9478C9.13265 11.2774 9.25901 11.5922 9.42557 11.8824C9.54574 12.1047 9.67685 12.3199 9.81835 12.5271C10.2782 13.2077 10.8563 13.7855 11.5204 14.2285C11.8537 14.4537 12.2099 14.6367 12.582 14.774C12.9685 14.9629 13.3953 15.0354 13.8169 14.9839C14.0572 14.9446 14.2848 14.8424 14.4798 14.6861C14.6748 14.5297 14.8312 14.3241 14.9351 14.0874C14.9962 13.9443 15.0148 13.7844 14.9882 13.6296C14.9245 13.313 14.5317 13.1261 14.2911 12.9735Z" fill="#128C7E"/>
</svg>
